<?xml version="1.0" encoding="UTF-8" standalone="no"?>
<svg
   width="287.74899"
   height="300.75201"
   viewBox="0 0 287.74899 300.75201"
   version="1.1"
   xml:space="preserve"
   style="clip-rule:evenodd;fill-rule:evenodd;stroke-linejoin:round;stroke-miterlimit:2"
   id="svg501"
   xmlns="http://www.w3.org/2000/svg"
   xmlns:svg="http://www.w3.org/2000/svg"><defs
   id="defs505" />
    <g
   transform="translate(-0.313,-16.893)"
   id="g499">
        <path
   d="M 162.019,256.847 H 0.978 c -0.665,-3.614 -0.665,-7.228 -0.665,-11.564 0,-57.821 43.212,-104.799 96.395,-104.799 40.221,0 74.739,26.869 89.175,64.977 10.81,-8.669 24.452,-13.897 39.139,-13.897 34.386,0 63.04,28.655 63.04,63.04 0,35.819 -28.654,63.041 -63.04,63.041 -33.665,0 -61.836,-26.092 -63.003,-60.798 z m 55.839,-25.166 v 15.76 h -15.76 c -4.298,0 -8.596,2.865 -8.596,7.163 0,5.731 4.298,8.597 8.596,8.597 h 15.76 v 15.76 c 0,4.298 2.866,8.596 7.164,8.596 4.298,0 8.596,-4.298 8.596,-8.596 v -15.76 h 15.761 c 4.298,0 7.163,-2.866 7.163,-8.597 0,-4.298 -2.865,-7.163 -7.163,-7.163 h -15.761 v -15.76 c 0,-4.299 -4.298,-8.597 -8.596,-8.597 -4.298,0 -7.164,4.298 -7.164,8.597 z M 96.708,16.893 c 27.256,0 49.194,23.851 49.194,53.484 0,29.632 -21.938,53.483 -49.194,53.483 -27.257,0 -49.195,-23.851 -49.195,-53.483 0,-29.633 21.938,-53.484 49.195,-53.484 z"
   id="path497" />
    </g>
</svg>
