<?xml version="1.0" encoding="UTF-8" standalone="no"?>
<!DOCTYPE svg PUBLIC "-//W3C//DTD SVG 1.1//EN" "http://www.w3.org/Graphics/SVG/1.1/DTD/svg11.dtd">
<svg width="100%" height="100%" viewBox="0 0 198 277" version="1.1" xmlns="http://www.w3.org/2000/svg" xmlns:xlink="http://www.w3.org/1999/xlink" xml:space="preserve" xmlns:serif="http://www.serif.com/" style="fill-rule:evenodd;clip-rule:evenodd;stroke-linejoin:round;stroke-miterlimit:2;">
    <g>
        <path d="M125,0L198,73L125,73L125,0ZM0,0L117,0L117,73C117,77 121,81 125,81L198,81L198,277L0,277L0,0ZM89.888,138.43L89.888,158.477L69.842,158.477C64.374,158.477 58.907,162.122 58.907,167.589C58.907,174.878 64.374,178.523 69.842,178.523L89.888,178.523L89.888,198.57C89.888,204.037 93.533,209.504 99,209.504C104.467,209.504 109.934,204.037 109.934,198.57L109.934,178.523L129.981,178.523C135.448,178.523 139.093,174.878 139.093,167.589C139.093,162.122 135.448,158.477 129.981,158.477L109.934,158.477L109.934,138.43C109.934,132.963 104.467,127.496 99,127.496C93.533,127.496 89.888,132.963 89.888,138.43Z"/>
    </g>
</svg>
