<?xml version="1.0" encoding="UTF-8" standalone="no"?>
<svg
   width="999.76001"
   height="1155.3234"
   viewBox="0 0 999.76001 1155.3234"
   version="1.1"
   xml:space="preserve"
   style="clip-rule:evenodd;fill-rule:evenodd;stroke-linejoin:round;stroke-miterlimit:2"
   id="svg6"
   xmlns="http://www.w3.org/2000/svg"
   xmlns:svg="http://www.w3.org/2000/svg"><defs
   id="defs10" />
    <g
   transform="matrix(1.53992,0.0341391,-0.0341391,1.53992,-405.26835,-370.17456)"
   id="g4">
        <path
   d="M 793.18,632.61 603.52,961.06 c -8.766,15.645 -28.348,21.508 -43.016,12.703 l -262.92,-152.48 c -15.652,-8.789 -21.508,-28.332 -12.742,-43.984 l 189.66,-328.45 154.46,-96.781 74.289,42.039 c 4.883,-13.688 3.891,-14.668 6.84,-28.355 6.84,-30.297 13.688,-84.059 74.281,-130.01 20.531,-17.602 51.797,-17.602 80.145,-2.934 15.645,6.84 29.336,18.559 39.125,31.281 9.758,14.645 14.637,30.297 15.613,44.965 -0.985,18.559 -9.758,43.984 -50.809,63.527 -32.285,14.668 -59.664,18.582 -85.062,21.516 -22.496,2.934 -40.07,4.891 -54.738,14.668 l 72.352,42.035 z m -76.254,-96.77 c 15.652,-26.391 10.738,-58.652 -7.82,-80.16 l -33.238,-20.531 c -29.336,-9.769 -62.559,2.934 -79.191,31.285 -18.559,33.23 -7.828,75.262 25.438,94.812 33.238,18.578 76.254,7.824 94.812,-25.406 z m 8.812,-168.13 c 0,4.891 -0.984,7.82 -1.972,11.738 -0.985,4.875 0,7.805 -1.965,13.688 17.617,-11.738 36.176,-12.719 59.656,-14.668 23.441,-2.934 50.809,-6.84 80.137,-20.527 27.371,-11.738 41.059,-29.336 42.035,-48.879 0,-22.492 -16.625,-45.949 -41.051,-59.633 -0.988,-0.961 -2.953,-1.941 -4.883,-2.934 -23.473,-11.723 -46.953,-11.723 -64.531,1.965 -54.723,42.016 -62.551,89.938 -67.426,119.25 z"
   style="fill-rule:nonzero"
   id="path2" />
    </g>
</svg>
