<?xml version="1.0" encoding="UTF-8" standalone="no"?>
<!-- Created with Inkscape (http://www.inkscape.org/) -->

<svg
   width="896.00012"
   height="316.92551"
   viewBox="0 0 237.06667 83.853198"
   version="1.1"
   id="svg4637"
   xmlns="http://www.w3.org/2000/svg"
   xmlns:svg="http://www.w3.org/2000/svg"
   xmlns:serif="http://www.serif.com/">
  <defs
     id="defs4634" />
  <rect
     style="fill:#ffffff;fill-opacity:1;stroke-width:0.211667;stroke-linecap:square"
     id="rect4780"
     width="50.705696"
     height="69.032478"
     x="7.2261314"
     y="8.043294"
     ry="7.9999938" />
  <rect
     style="fill:#ffffff;fill-opacity:1;stroke-width:0.211667;stroke-linecap:square"
     id="rect5508"
     width="48.086369"
     height="44.450275"
     x="68.230026"
     y="28.533148"
     ry="7.9999938" />
  <rect
     style="fill:#ffffff;fill-opacity:1;stroke-width:0.211667;stroke-linecap:square"
     id="rect5510"
     width="49.437798"
     height="42.187687"
     x="121.49603"
     y="28.533148"
     ry="7.9999938" />
  <rect
     style="fill:#ffffff;fill-opacity:1;stroke-width:0.211667;stroke-linecap:square"
     id="rect5512"
     width="47.817322"
     height="43.99192"
     x="180.0385"
     y="25.35066"
     ry="7.9999938" />
  <g
     id="layer1"
     transform="translate(-16.933342,-16.933345)">
    <g
       transform="matrix(0.12878079,-0.00708577,0.00708577,0.12878102,-468.28171,-138.62332)"
       id="g4573"
       style="clip-rule:evenodd;fill-rule:evenodd;stroke-linejoin:round;stroke-miterlimit:2">
      <path
         d="m 5422.64,1609.02 c 39.79,5.12 110.28,7.75 92.81,44.79 -48.34,102.55 -16.94,326.27 -35.74,411.56 -8.32,37.76 -20.99,71.78 -71.04,71.29 -65.16,-0.64 -163.74,-12.77 -361.41,-25.78 -69.53,-4.57 -62.3,-137.28 -55.52,-222.25 6.13,-76.94 8.17,-125.11 45,-258.49 21.41,-77.56 97.2,-57.5 110.97,-56.86 71.29,3.29 212.7,27.71 274.93,35.74 z m -285.6,394.37 c -30.19,-19.91 -45.94,-61.18 -41.07,-107.66 6.08,-58.07 28.16,-106.25 64.1,-139.87 38.16,-35.69 66.42,-37.22 101.09,-5.46 l 17,15.57 10.21,-11.01 c 10.77,-11.62 29.18,-18.39 39.37,-14.48 10.35,3.97 12.22,29.54 7.11,96.92 -3.93,51.74 -3.73,70.71 1.01,93.89 5.04,24.65 7.48,29.27 16.08,30.49 6.02,0.86 15.71,-3.24 23.81,-10.05 15.75,-13.26 25.47,-14.62 29.48,-4.15 4.14,10.78 -41.25,52.99 -63.69,59.22 -22.45,6.23 -49.19,6.3 -60.67,0.14 -4.92,-2.63 -14.48,-13.51 -21.25,-24.18 l -12.3,-19.4 -12.55,15.72 c -23.67,29.66 -71.54,41.57 -97.73,24.3 z m 85.41,-59.81 c 12.33,-20.47 23.02,-55.49 29.74,-97.44 l 5.76,-35.97 -13.65,-15.42 c -20.87,-23.57 -32.18,-21.09 -46.88,10.28 -10.69,22.8 -12.05,31.01 -12.05,72.63 0,70.33 16.62,99.87 37.08,65.92 z"
         style="fill:#ed3657"
         id="path4571" />
    </g>
    <g
       transform="matrix(0.12878079,-0.00708577,0.00708577,0.12878102,-466.50442,-141.96211)"
       id="g4577"
       style="clip-rule:evenodd;fill-rule:evenodd;stroke-linejoin:round;stroke-miterlimit:2">
      <path
         d="m 5016.95,1742.49 c 3.24,-48.57 -36.49,-81.95 -72.04,-95.71 -67.33,-26.06 -263.12,-27.12 -263.12,-27.12 -38.75,-2.45 -135.03,11.36 -134.21,68.51 1.11,76.71 -18.76,379.69 -18.76,379.69 -1.25,44.31 43.8,66.04 82.55,68.49 0,0 130.93,-5.78 298.7,15.25 33.84,4.24 77.96,-21.22 86.79,-54.16 21.73,-80.94 15.06,-279.51 20.09,-354.95 z m -179.07,260.54 c -28.42,-13.07 -30.08,-20.02 -29.06,-121.76 0.66,-66.2 -0.52,-88.59 -5.02,-95.49 l -5.88,-9.01 -10.69,8.78 c -26.74,21.94 -51.66,77.95 -58.68,131.88 -5.66,43.49 -16.94,61.89 -45.89,74.88 -19.71,8.83 -22.32,9.14 -33,3.91 -14.7,-7.21 -17.06,-17.16 -17.68,-74.59 -0.5,-46.82 2.42,-69.74 15.36,-120.55 6.05,-23.77 10.17,-31 25.7,-45.16 20.76,-18.92 34.06,-21.33 44.08,-7.98 5.6,7.47 5.99,15.01 2.41,47.09 -2.33,21.01 -4.3,39.9 -4.36,41.98 -0.06,2.08 7.79,-8.03 17.44,-22.46 35.35,-52.82 60.55,-71.65 95.91,-71.65 13.1,0 21.17,3.13 35.28,13.68 27.05,20.22 29.5,31.31 29.5,133.34 0,96.73 1.77,101.96 23.11,68.43 12.37,-19.45 29.75,-30.53 37.39,-23.86 5.92,5.17 -11.73,38.18 -28.82,53.9 -26.81,24.66 -55.01,29.4 -87.1,14.64 z"
         style="fill:#bac638"
         id="path4575" />
    </g>
    <g
       id="g4580"
       transform="matrix(0.12897593,0,0,0.12897552,-769.03681,-180.93761)"
       style="clip-rule:evenodd;fill-rule:evenodd;stroke-linejoin:round;stroke-miterlimit:2">
      <path
         id="L---v22"
         serif:id="L – v2"
         d="m 6574.75,1668.58 c -6.57,-38.17 -2.74,-127.48 -61.1,-122.02 -305.79,28.62 -313.8,-24.66 -386.79,-9.67 -35.87,7.37 -33.47,73.51 -32.49,118.9 0,0 19.43,212.46 9.45,435.57 -1.73,38.72 -9.22,98 41.17,91.53 82.05,-10.52 309.1,18.83 400.33,-17.04 34.23,-13.46 70.92,-45.21 75.81,-83.59 11.07,-86.53 -31.58,-327.6 -46.38,-413.68 z m -288.32,422.55 c -29.3,-21.35 -40.53,-62.07 -45.78,-166.12 -6.57,-129.76 9.8,-234.77 41.95,-268.96 18.96,-20.18 45.02,-27.23 58.24,-15.74 11.68,10.14 8.22,13.75 2.44,101.13 -5.96,89.86 -1.17,179.27 12.62,241.68 6.06,27.37 13.77,50.38 15.22,51.64 1.46,1.27 34.82,0.87 71.77,-0.74 71.42,-3.14 78.81,-0.7 62.58,20.72 -11.29,14.88 -78.38,33.92 -151.72,43.05 -48.04,5.99 -50.29,5.76 -67.34,-6.66 z"
         style="fill:#c81150" />
    </g>
    <g
       transform="matrix(0.12843939,0.01175253,-0.01175252,0.12843872,-427.18224,-224.68327)"
       id="g4584"
       style="clip-rule:evenodd;fill-rule:evenodd;stroke-linejoin:round;stroke-miterlimit:2">
      <path
         d="m 4560.56,1714.01 c -4.03,-43.58 -39.49,-85.8 -79.83,-95.54 -67.5,-16.3 -234.51,-7.32 -325.18,-2.25 -70.76,3.96 -57.49,52.61 -60.34,88.09 -5.82,72.41 15.1,73.99 25.43,346.4 1.3,34.12 67.76,51.62 107.63,52.23 70.47,1.08 254.38,5.7 317.05,-16.08 41.4,-14.39 30.57,-92.58 23.53,-139.07 -10.09,-66.71 -8.29,-233.78 -8.29,-233.78 z m -333.03,290.83 c -26.48,-14.94 -46.06,-101.36 -36.12,-159.38 10.72,-62.5 35.32,-99.8 64,-97.06 l 15.06,1.44 2.67,62.57 c 2.82,66.09 16.04,131.24 29.73,146.44 6.73,7.48 7.54,7.24 15.24,-4.47 12.38,-18.79 35.04,-84.61 35.04,-101.76 0,-8.35 2.28,-25.81 5.07,-38.79 9.19,-42.89 47.46,-67.82 64.41,-41.96 3.91,5.97 10.91,36.64 15.56,68.15 15.31,103.76 27.43,124.58 62.1,106.65 28.28,-14.62 31.92,8.73 4.47,28.61 -25.15,18.22 -45.23,23.94 -76.16,21.71 -31.84,-2.31 -47.22,-12.26 -60.22,-38.97 l -9.35,-19.21 -13.89,24.61 c -19.86,35.19 -35.98,45.3 -74.65,46.79 -21.25,0.82 -35.05,-0.9 -42.96,-5.37 z"
         style="fill:#21a0a0"
         id="path4582" />
    </g>
  </g>
</svg>
