<?xml version="1.0" encoding="UTF-8" standalone="no"?>
<svg
   width="100%"
   height="100%"
   viewBox="0 0 1200 1200"
   version="1.1"
   xml:space="preserve"
   style="fill-rule:evenodd;clip-rule:evenodd;stroke-linejoin:round;stroke-miterlimit:2;"
   id="svg1"
   xmlns="http://www.w3.org/2000/svg"
   xmlns:svg="http://www.w3.org/2000/svg"><defs
   id="defs1" />&#10;    <g
   transform="matrix(1.3244953,0,0,1.3244953,-194.75643,-194.7008)"
   id="g1">&#10;        <path
   d="m 1036.35,955.7 c 0,0 0.9,0.897 0,-0.001 22.27,22.272 22.26,58.331 -0.01,80.601 -22.26,22.26 -58.331,22.26 -80.597,0 0,0 -201.763,-201.766 -201.763,-201.766 C 690.716,881.29 612.568,909 528.042,909 c -210.079,0 -381,-170.921 -381,-381 0,-210.079 170.921,-381 381,-381 210.079,0 381,170.921 381,381 0,84.53 -27.71,162.677 -74.465,225.938 z M 261.05,528 c 0,147.221 119.779,267 267,267 147.221,0 267,-119.779 267,-267 0,-147.221 -119.779,-267 -267,-267 -147.221,0 -267,119.779 -267,267 z"
   id="path1"
   style="stroke-width:0.99962605;stroke-dasharray:none;fill:#595959;fill-opacity:1" />&#10;    </g>&#10;</svg>
